# xmcd CD database file
#
# Track frame offsets:
#	182
#	13687
#	26180
#	38945
#	51890
#	65075
#	78047
#	89695
#	102562
#	116445
#	131457
#	145467
#	160180
#	174650
#	188360
#	202830
#	216917
#	231715
#	245685
#	258932
#
# Disc length: 3618 seconds
#
# Revision: 0
# Processed by: cddbd v1.5.2PL0 Copyright (c) Steve Scherf et al.
# Submitted via: CDex 1.70beta1
#
DISCID=220e2014
DTITLE=Jelly roll Morton - Mr Jelly Lord
DYEAR=1900
DGENRE=Jazz
TTITLE0=Mr Jelly Lord
TTITLE1=Midnight Mama
TTITLE2=The Pearls
TTITLE3=Sweetheart O' Mine
TTITLE4=Fat Meat and Greens
TTITLE5=King Porter Stomp
TTITLE6=King Porter With King Oliver
TTITLE7=Tpm Cat
TTITLE8=Fish Tail Blues
TTITLE9=High Society
TTITLE10=Tiger Rag
TTITLE11=London Blues
TTITLE12=Soap Suds
TTITLE13=Sergeant Dunn's Bugle Call Rag
TTITLE14=Han 'n' Eggs
TTITLE15=Buffalo Blues
TTITLE16=You Need Some Lovin'
TTITLE17=Never Had No Lovin'
TTITLE18=I'm Alone Without You
TTITLE19=Mr Jelly Lord
EXTD=
EXTT0=
EXTT1=
EXTT2=
EXTT3=
EXTT4=
EXTT5=
EXTT6=
EXTT7=
EXTT8=
EXTT9=
EXTT10=
EXTT11=
EXTT12=
EXTT13=
EXTT14=
EXTT15=
EXTT16=
EXTT17=
EXTT18=
EXTT19=
PLAYORDER=
